<svg xmlns="http://www.w3.org/2000/svg" width="24.717" height="28.248" viewBox="0 0 24.717 28.248">
  <path id="calendar-day-solid" d="M0,25.6a2.649,2.649,0,0,0,2.648,2.648h19.42A2.649,2.649,0,0,0,24.717,25.6V10.593H0ZM3.531,15.007a.885.885,0,0,1,.883-.883h5.3a.885.885,0,0,1,.883.883v5.3a.885.885,0,0,1-.883.883h-5.3a.885.885,0,0,1-.883-.883ZM22.069,3.531H19.42V.883A.885.885,0,0,0,18.538,0H16.772a.885.885,0,0,0-.883.883V3.531H8.827V.883A.885.885,0,0,0,7.945,0H6.179A.885.885,0,0,0,5.3.883V3.531H2.648A2.649,2.649,0,0,0,0,6.179V8.827H24.717V6.179A2.649,2.649,0,0,0,22.069,3.531Z" fill="#fff"/>
</svg>
