<svg xmlns="http://www.w3.org/2000/svg" width="25.353" height="22.536" viewBox="0 0 25.353 22.536">
  <path id="cart-arrow-down-solid" d="M22.215,14.085H9.312L9.6,15.493H21.415a1.056,1.056,0,0,1,1.03,1.29L22.2,17.852a2.466,2.466,0,1,1-2.8.458H10.175a2.465,2.465,0,1,1-2.951-.377L4.132,2.817H1.056A1.056,1.056,0,0,1,0,1.761v-.7A1.056,1.056,0,0,1,1.056,0H5.569A1.056,1.056,0,0,1,6.6.845l.4,1.972H24.3a1.056,1.056,0,0,1,1.03,1.29l-2.081,9.155A1.056,1.056,0,0,1,22.215,14.085ZM17.739,8.451H15.845V5.81a.528.528,0,0,0-.528-.528H14.261a.528.528,0,0,0-.528.528V8.451H11.839a.528.528,0,0,0-.373.9l2.95,2.95a.528.528,0,0,0,.747,0l2.95-2.95A.528.528,0,0,0,17.739,8.451Z" fill="#fff"/>
</svg>
