<svg xmlns="http://www.w3.org/2000/svg" width="28.248" height="28.248" viewBox="0 0 28.248 28.248">
  <path id="coins-solid" d="M0,22.361v2.356c0,1.948,4.745,3.531,10.593,3.531s10.593-1.583,10.593-3.531V22.361c-2.279,1.605-6.444,2.356-10.593,2.356S2.279,23.967,0,22.361Zm17.655-15.3c5.848,0,10.593-1.583,10.593-3.531S23.5,0,17.655,0,7.062,1.583,7.062,3.531,11.807,7.062,17.655,7.062ZM0,16.574V19.42c0,1.948,4.745,3.531,10.593,3.531s10.593-1.583,10.593-3.531V16.574c-2.279,1.876-6.45,2.847-10.593,2.847S2.279,18.449,0,16.574Zm22.951.607c3.161-.612,5.3-1.749,5.3-3.057V11.768a13.548,13.548,0,0,1-5.3,1.9ZM10.593,8.827C4.745,8.827,0,10.8,0,13.241s4.745,4.414,10.593,4.414,10.593-1.975,10.593-4.414S16.441,8.827,10.593,8.827Zm12.1,3.106c3.31-.6,5.556-1.765,5.556-3.106V6.472c-1.959,1.385-5.324,2.13-8.866,2.306A6.178,6.178,0,0,1,22.692,11.934Z" fill="#fff"/>
</svg>
