<svg xmlns="http://www.w3.org/2000/svg" width="58.915" height="62" viewBox="0 0 58.915 62">
  <g id="connetion-02" transform="translate(0)">
    <path id="Path_24" data-name="Path 24" d="M17.647,377.521a10.236,10.236,0,0,1-13.493,0,1.116,1.116,0,0,0-1.59.108A10.847,10.847,0,0,0,0,384.647v1.875a1.927,1.927,0,0,0,1.927,1.927H19.874a1.927,1.927,0,0,0,1.927-1.927v-1.875a10.847,10.847,0,0,0-2.564-7.019,1.116,1.116,0,0,0-1.59-.108Z" transform="translate(0 -326.449)" fill="#ed1f8f"/>
    <path id="Path_25" data-name="Path 25" d="M305.668,377.628a1.117,1.117,0,0,0-1.591-.107,10.236,10.236,0,0,1-13.492,0,1.117,1.117,0,0,0-1.591.107,10.847,10.847,0,0,0-2.564,7.019v1.875a1.927,1.927,0,0,0,1.927,1.927h17.949a1.927,1.927,0,0,0,1.927-1.927v-1.875A10.847,10.847,0,0,0,305.668,377.628Z" transform="translate(-249.318 -326.448)" fill="#ed1f8f"/>
    <ellipse id="Ellipse_12" data-name="Ellipse 12" cx="6.236" cy="6.236" rx="6.236" ry="6.236" transform="translate(21.209 4.773) rotate(-22.5)" fill="#ed1f8f"/>
    <path id="Path_26" data-name="Path 26" d="M73.242,134.667a6.236,6.236,0,1,0,.242-3.686l-7.55-2.436a5.21,5.21,0,0,0-3.377-4.423v-7.494h7.065A1.927,1.927,0,0,0,71.55,114.7v-1.876a10.853,10.853,0,0,0-2.564-7.019,1.118,1.118,0,0,0-1.591-.106,10.236,10.236,0,0,1-13.492,0,1.118,1.118,0,0,0-1.591.106,10.853,10.853,0,0,0-2.564,7.019V114.7a1.927,1.927,0,0,0,1.927,1.927h7.3v7.481a5.211,5.211,0,0,0-3.405,4.381L48,130.932a6.237,6.237,0,1,0,.269,3.676l8.2-2.643a5.2,5.2,0,0,0,8.529.044Z" transform="translate(-31.293 -89.847)" fill="#ed1f8f"/>
  </g>
</svg>
