<svg xmlns="http://www.w3.org/2000/svg" width="20.56" height="27.413" viewBox="0 0 20.56 27.413">
  <path id="file-alt-solid" d="M11.993,7.282V0H1.285A1.282,1.282,0,0,0,0,1.285V26.128a1.282,1.282,0,0,0,1.285,1.285h17.99a1.282,1.282,0,0,0,1.285-1.285V8.567H13.278A1.289,1.289,0,0,1,11.993,7.282ZM15.42,19.917a.644.644,0,0,1-.642.642H5.782a.644.644,0,0,1-.642-.642v-.428a.644.644,0,0,1,.642-.642h8.995a.644.644,0,0,1,.642.642Zm0-3.427a.644.644,0,0,1-.642.642H5.782a.644.644,0,0,1-.642-.642v-.428a.644.644,0,0,1,.642-.642h8.995a.644.644,0,0,1,.642.642Zm0-3.855v.428a.644.644,0,0,1-.642.642H5.782a.644.644,0,0,1-.642-.642v-.428a.644.644,0,0,1,.642-.642h8.995A.644.644,0,0,1,15.42,12.636Zm5.14-6.109v.327H13.707V0h.327a1.284,1.284,0,0,1,.91.375l5.242,5.247A1.281,1.281,0,0,1,20.56,6.527Z" fill="#c17185"/>
</svg>
