<svg xmlns="http://www.w3.org/2000/svg" width="19.021" height="19.017" viewBox="0 0 19.021 19.017">
  <path id="sosial-02" d="M18.956,5.59A5.624,5.624,0,0,0,17.42,1.606,5.672,5.672,0,0,0,13.436.07C11.866-.02,7.16-.02,5.589.07A5.655,5.655,0,0,0,1.606,1.6,5.645,5.645,0,0,0,.07,5.584c-.089,1.572-.089,6.277,0,7.847a5.629,5.629,0,0,0,1.537,3.985A5.673,5.673,0,0,0,5.59,18.952c1.57.089,6.276.089,7.846,0a5.628,5.628,0,0,0,3.985-1.536,5.671,5.671,0,0,0,1.536-3.985C19.046,11.861,19.046,7.16,18.956,5.59ZM12.684,9.511A3.172,3.172,0,1,1,12.348,8.1a3.172,3.172,0,0,1,.336,1.412Zm.768-5.075A1.138,1.138,0,1,1,14.59,5.573a1.138,1.138,0,0,1-1.138-1.137Zm3.475,10.681a3.209,3.209,0,0,1-1.808,1.808c-1.252.5-4.223.382-5.605.382s-4.358.11-5.605-.382A3.207,3.207,0,0,1,2.1,15.116c-.5-1.252-.382-4.222-.382-5.605,0-.376-.008-.87-.01-1.412H4.844a4.876,4.876,0,1,0,9.336,0h3.138c0,.543-.011,1.037-.011,1.412C17.31,10.9,17.424,13.869,16.928,15.116Z" transform="translate(-0.002 -0.002)" fill="#fff"/>
</svg>
