<svg xmlns="http://www.w3.org/2000/svg" width="62.007" height="62" viewBox="0 0 62.007 62">
  <g id="speaker" transform="translate(0)">
    <path id="Path_22" data-name="Path 22" d="M32.479,36.667H10.52a1.936,1.936,0,0,1-1.914-1.643L6.023,18.232A1.935,1.935,0,0,1,7.937,16H35.062a1.939,1.939,0,0,1,1.914,2.235L34.393,35.026a1.936,1.936,0,0,1-1.914,1.64Z" transform="translate(9.504 25.333)" fill="#ed1f8f"/>
    <circle id="Ellipse_11" data-name="Ellipse 11" cx="10.5" cy="10.5" r="10.5" transform="translate(20.406 0)" fill="#ed1f8f"/>
    <path id="Path_23" data-name="Path 23" d="M59.979,24.083A18.776,18.776,0,0,0,51.666,9.849a3.916,3.916,0,1,0-1.94,3.366A14.89,14.89,0,0,1,56.1,24.083H51.514A12.284,12.284,0,0,0,39.4,13.75H22.606A12.284,12.284,0,0,0,10.49,24.083H1.939A1.969,1.969,0,0,0,.105,26.692L5.272,40.9a1.964,1.964,0,0,0,1.834,1.266h4.443l-1.137-7.311a7.135,7.135,0,0,1,1.627-5.709,7.238,7.238,0,0,1,5.4-2.48H44.564a7.1,7.1,0,0,1,7.027,8.189l-1.137,7.311H54.9A1.964,1.964,0,0,0,56.732,40.9L61.9,26.692a1.963,1.963,0,0,0-1.919-2.609Z" transform="translate(0.001 9.5)" fill="#ed1f8f"/>
  </g>
</svg>
