<svg xmlns="http://www.w3.org/2000/svg" width="62.524" height="62" viewBox="0 0 62.524 62">
  <g id="storytelling" transform="translate(0.402)">
    <path id="Path_14" data-name="Path 14" d="M60.75,391.63l-.079-.02-1.636-6.544a1.82,1.82,0,0,0-.914-1.167c-.691-.366-16.524-8.608-27.059-2.489C20.526,375.29,4.693,383.533,4,383.9a1.82,1.82,0,0,0-.914,1.167l-1.636,6.544-.079.02a1.82,1.82,0,1,0,.9,3.528l20.318-5.165a9.591,9.591,0,0,0,16.948,0l20.318,5.165a1.82,1.82,0,0,0,.9-3.528Z" transform="translate(0 -333.214)" fill="#ed1f8f"/>
    <path id="Path_15" data-name="Path 15" d="M35.18,335.6a38.767,38.767,0,0,1,5.479-.554A38.136,38.136,0,0,1,50.8,333.534h0a26.354,26.354,0,0,1,3.51.23,25.951,25.951,0,0,0-8.9-2.243,42.858,42.858,0,0,0-10.949.514,1.82,1.82,0,0,0,.713,3.57Z" transform="translate(-29.001 -291.231)" fill="#ed1f8f"/>
    <path id="Path_16" data-name="Path 16" d="M306.884,333.533a38.141,38.141,0,0,1,10.143,1.515,38.777,38.777,0,0,1,5.481.554,1.82,1.82,0,0,0,.712-3.57,42.833,42.833,0,0,0-10.949-.514,25.951,25.951,0,0,0-8.9,2.243A26.319,26.319,0,0,1,306.884,333.533Z" transform="translate(-266.566 -291.23)" fill="#ed1f8f"/>
    <path id="Path_17" data-name="Path 17" d="M414.824,15.539H416.4v1.577a1.82,1.82,0,0,0,3.64,0V15.539h1.577a1.82,1.82,0,0,0,0-3.64h-1.577V10.322a1.82,1.82,0,0,0-3.64,0V11.9h-1.577a1.82,1.82,0,1,0,0,3.64Z" transform="translate(-362.894 -7.531)" fill="#ed1f8f"/>
    <path id="Path_18" data-name="Path 18" d="M322.822,232.992a1.815,1.815,0,0,0,.7-.14L335.169,228a1.82,1.82,0,1,0-1.4-3.36l-11.648,4.853a1.82,1.82,0,0,0,.7,3.5Z" transform="translate(-282.054 -197.32)" fill="#ed1f8f"/>
    <path id="Path_19" data-name="Path 19" d="M274.4,104.474a1.818,1.818,0,0,0,2.192-1.349l4.853-20.383A1.82,1.82,0,0,0,277.9,81.9l-4.853,20.383A1.82,1.82,0,0,0,274.4,104.474Z" transform="translate(-239.878 -70.794)" fill="#ed1f8f"/>
    <path id="Path_20" data-name="Path 20" d="M194.961,152.166a1.82,1.82,0,0,0,1.8,1.563,1.848,1.848,0,0,0,.26-.018,1.82,1.82,0,0,0,1.544-2.059l-1.941-13.589a1.82,1.82,0,0,0-3.6.515Z" transform="translate(-169.585 -119.999)" fill="#ed1f8f"/>
    <path id="Path_21" data-name="Path 21" d="M49.537,169.035a1.82,1.82,0,0,0,0,2.574l11.648,11.648a1.82,1.82,0,1,0,2.574-2.574L52.11,169.035A1.82,1.82,0,0,0,49.537,169.035Z" transform="translate(-43.058 -148.119)" fill="#ed1f8f"/>
    <circle id="Ellipse_7" data-name="Ellipse 7" cx="2" cy="2" r="2" transform="translate(45.598 16)" fill="#ed1f8f"/>
    <ellipse id="Ellipse_8" data-name="Ellipse 8" cx="1.5" cy="2" rx="1.5" ry="2" transform="translate(29.598 6)" fill="#ed1f8f"/>
    <ellipse id="Ellipse_9" data-name="Ellipse 9" cx="1.5" cy="2" rx="1.5" ry="2" transform="translate(1.598 31)" fill="#ed1f8f"/>
    <ellipse id="Ellipse_10" data-name="Ellipse 10" cx="6" cy="5.5" rx="6" ry="5.5" transform="translate(-0.402 0)" fill="#ed1f8f"/>
  </g>
</svg>
