<svg xmlns="http://www.w3.org/2000/svg" width="23.377" height="18.989" viewBox="0 0 23.377 18.989">
  <path id="sosial-04" d="M20.977,4.732c.015.208.015.416.015.623A13.54,13.54,0,0,1,7.358,18.988,13.541,13.541,0,0,1,0,16.837a9.937,9.937,0,0,0,1.157.059,9.6,9.6,0,0,0,5.948-2.047,4.8,4.8,0,0,1-4.483-3.323,6.066,6.066,0,0,0,.905.074,5.075,5.075,0,0,0,1.261-.163,4.792,4.792,0,0,1-3.842-4.7V6.675a4.826,4.826,0,0,0,2.165.605A4.8,4.8,0,0,1,1.632.874a13.618,13.618,0,0,0,9.88,5.015,5.368,5.368,0,0,1-.119-1.1,4.8,4.8,0,0,1,8.293-3.278A9.415,9.415,0,0,0,22.726.355,4.775,4.775,0,0,1,20.62,3a9.6,9.6,0,0,0,2.757-.74,10.3,10.3,0,0,1-2.4,2.478Z" transform="translate(0 0.001)" fill="#fff"/>
</svg>
