<svg id="work-03" xmlns="http://www.w3.org/2000/svg" width="48.569" height="62" viewBox="0 0 48.569 62">
  <ellipse id="Ellipse_13" data-name="Ellipse 13" cx="5.106" cy="5.106" rx="5.106" ry="5.106" transform="translate(6.199 2.346) rotate(-13.28)" fill="#ed1f8f"/>
  <path id="Path_27" data-name="Path 27" d="M47.133,42.3l1.359-3.129a.941.941,0,0,0-.865-1.313H44.909V36.789a1.34,1.34,0,0,0-1.338-1.34h-7.73l.147-1.088a1.332,1.332,0,0,0-1.145-1.493h0A1.327,1.327,0,0,0,33.35,34.01L28.073,73.679l-2.213,1.7,1.164-12.716A3.013,3.013,0,0,0,25.1,59.574l-6.254-4.252V44.445h.935v5.579a.817.817,0,0,0,0,.084c0,.049,0,.1,0,.144l.016.114a.293.293,0,0,0,.019.128.724.724,0,0,1,.03.128c.011.041.016.073.027.109s.03.1.046.141l.033.09c.022.052.046.1.071.152l.033.071c.03.057.063.109.1.163l.024.044h0c.035.052.071.1.109.152l.041.054.106.12.063.068.1.087.087.079.1.079.092.068a2.556,2.556,0,0,0,.878.375h0a1.134,1.134,0,0,1,.163.027h.7l.131-.022.122-.027.117-.03.131-.043.1-.038.139-.063a.814.814,0,0,0,.084-.041c.049-.024.1-.054.147-.084a.611.611,0,0,0,.057-.033l5.71-3.7.856-6.452a2.545,2.545,0,0,0-.59.272L24.824,45.4V41.479A6.028,6.028,0,0,0,18.8,35.448H6.017A6.031,6.031,0,0,0,0,41.479V57.755a2.518,2.518,0,1,0,5.035,0v-13.3h.851V81.871a3.015,3.015,0,0,0,6.031,0V58.725h1.2l7.735,5.269L19.761,75.767a3.013,3.013,0,0,0,1.7,2.991l-5.277,4.048a1.158,1.158,0,0,0,.7,2.08H41.127a1.158,1.158,0,0,0,.7-2.08L30.683,74.253l3.961-29.8h8.081l-1.773,1.582a.4.4,0,0,0,.272.7h6.395a.941.941,0,0,0,.865-1.313Z" transform="translate(0 -22.887)" fill="#ed1f8f"/>
</svg>
